# xmcd
#
# Track frame offsets:
# 150
# 15328
# 35059
# 52489
# 70352
# 89914
# 106300
# 124902
# 146549
# 158857
# 175424
#
# Disc length: 2546 seconds
#
# Revision: 0
# Processed by: cddbd v1.4PL0 Copyright (c) Steve Scherf et al.
# Submitted via: Axialis_AX_CDPlayer 2.6
#
DISCID=a509f00b
DTITLE=The Fabulous Thunderbirds - Hot Stuff
DYEAR=1900
DGENRE=
TTITLE0=Tuff Enuff
TTITLE1=Twist Of The Knife
TTITLE2=Why Get Up
TTITLE3=Got Love If You Want It
TTITLE4=Rock This Place
TTITLE5=Stand Back
TTITLE6=You Can't Judge A Book By Its Cover
TTITLE7=Powerful Stuff
TTITLE8=Wrap It Up
TTITLE9=Two Times My Lovin'
TTITLE10=Look At That, Look At That
EXTD=
EXTT0=
EXTT1=
EXTT2=
EXTT3=
EXTT4=
EXTT5=
EXTT6=
EXTT7=
EXTT8=
EXTT9=
EXTT10=
PLAYORDER=
